<svg xmlns="http://www.w3.org/2000/svg" viewBox="0 0 3000 3000">
  <defs>
    <style>
      .rich_black {
        fill: #1a181b;
      }
    </style>
  </defs>
  <path class="rich_black"
        d="M923.13,2595.38q-12.87-5-24.17-9.73c-48.52-34.52-108.9-77.48-112.24-154.55-94.93-35.18-169.36-66.55-212.34-89.92-12.49-17.94-29.57-41.66-40.61-60.46,68.05,34.25,186.22,81,332.45,131.79-20.46,48.84-45.92,109.62,56.91,182.87"/>
  <path class="rich_black"
        d="M862.17,2569.14c-3.89-1.93-7.41-3.77-10.53-5.51L833,2552.88c-65.86-42.26-128.06-82.18-182-156.23,12.4,5.65,26,11.58,40.79,17.78,34.48,50.12,61.7,89.7,170.38,154.71"/>
  <path class="rich_black"
        d="M1256.07,2656.72q-36.48-10.24-75-21.62c-4.36,12.49-11.27,28.88-18.07,40.28q-7.65-2.24-15.39-4.53-10.59-3.15-21-6.31c-1-14.12-2.67-32.93-4-47l-13.62-4.19c-27.41,17.79-32.34,21-39.62,33.36q-18.23-5.85-35.61-11.65c-.49-23.42,5.8-38.63,65.38-76.86q37.13,11.57,75.46,23.08l-24.7,10.69q19.3,5.83,38.89,11.66,34,10.09,66.82,19.48c19.86-6.09,46.35-14.19,66.18-20.38-37.52-10.5-76.34-21.7-116.17-33.53-54.72-16.25-108.14-32.74-159.42-49.14-29.56,26.67-74.23,67-44.34,104.17q-16.38-5.67-31.61-11.16c-21.45-24.5-25.32-28.91-27.68-54.3-21.9-7.56-42.88-15-62.79-22.25-2.32-10.44-6-24.41-6.22-35,24.67,8.78,50.56,17.76,77.45,26.85,18.33-33,21.15-38,53.22-69.84,70.08,22.82,144.21,45.92,220.59,68.6,92.73,27.54,180.61,52,260.66,72.9-181.4,49.46-229.23,56.78-229.42,56.77"/>
  <path class="rich_black"
        d="M1282.06,2707.81c-31.63-7.89-66.9-17.38-104.54-28.22,42.17-5.05,52.19-6.26,105.11-15.48q29.19,8,56.72,15.24c-19.61,2.39-45.74,5.77-65.41,7.68,29.52,7.93,57.37,15,83.1,21.26-22.49,0-52.67,2.66-75-.48"/>
  <path class="rich_black"
        d="M1800.28,2704.66c-42.33,2.68-152-17.25-300.06-53.94l-44.57,9.24c32.46,7.93,72.86,17.8,116.07,27.15-26.66,3.81-62.16,9.19-88.92,12.34C1434,2688.31,1378,2674.23,1317,2657.64c63.49-13.24,113.63-23.69,205-48.27,198.25,50.43,342.36,76.48,382.63,68.17-31.23,8.45-72.28,22.5-104.42,27.12"/>
  <path class="rich_black"
        d="M1363.26,2726.12c-7.85-1.52-16.26-3.25-25.17-5.18,100.52,4.32,177.59,5.57,327-15.65,14,2.38,26.74,4.31,38.22,5.79-151,19.62-265.46,24.69-340,15"/>
  <path class="rich_black"
        d="M643.75,2267.53c-23.13-9.05-44.91-17.81-65.17-26.25-.1-59.06-.21-126,81.75-236.43-154.56-57.28-275.74-108.37-345.72-146.4,1.58-23,3.17-53.66,6.65-76.39C424.44,1834,603.63,1904.89,825.37,1981.9c-74.46,71.75-167.13,161-181.62,285.63"/>
  <path class="rich_black"
        d="M479.4,2196.8c-14.1-7-26.39-13.56-36.73-19.6-29.36-70.74-52.55-126.61-38.67-236.53,21,9.58,44.16,19.65,69.19,30.15-16,69.15-28.66,123.77,6.21,226"/>
  <path class="rich_black"
        d="M1456.06,2407q-71.57-20.1-147.13-42.42c-5,35.68-12.31,83.13-18.56,118.59q-20.58-6-41.48-12.22-28.55-8.47-56.69-17c.84-37.16,1.64-86.7,2.07-123.86l-26.72-8.23c-68.31,41.29-82.53,49.88-129.55,84q-49.14-15.78-96-31.4c60-54.15,99.11-85.63,222-159.84q63,19.62,128,39.15l-43,21.88q34.11,10.34,68.71,20.62,60.11,17.85,118.1,34.44c28.73-13.91,67.07-32.39,95.72-46.44-61.09-17.11-124.3-35.34-189.14-54.6-89.09-26.45-176.07-53.3-259.57-80-72.21,49.89-171.1,118.21-226.8,195.6q-44.16-15.29-85.22-30.09c26.87-48,31-55.38,70.71-100.27-42.92-14.82-84-29.4-123.06-43.61,12.39-16.85,28.67-39.52,42.14-55.58,43.61,15.52,89.36,31.39,136.89,47.46,62.09-54.53,70.07-61.54,137.35-111.59,106.2,34.58,218.55,69.58,334.3,104,140.54,41.73,273.71,78.87,395,110.49-217.1,105.08-307.91,141-308.1,141"/>
  <path class="rich_black"
        d="M1611.36,2570.61c-85.27-21.26-180.35-46.85-281.84-76.06,68-27.5,109-44.1,178.65-73.05q57.24,15.77,111.24,29.91c-27.94,11.35-65.16,26.58-93.23,37.66,66,17.72,128.19,33.62,185.66,47.5-30.1,10.32-68.41,33-100.48,34"/>
  <path class="rich_black"
        d="M2311.92,2450.7c-69,4.37-247.85-28.11-489.21-87.93l-53.39,24.77c57.88,14.11,123.48,30.1,196.63,45.89-30,13.47-69.86,31.68-100.13,44.57-90.51-20.67-194.38-46.8-307.6-77.58,88.15-38.4,157.79-68.74,261.39-120.14,300.44,76.41,518.83,115.9,579.86,103.3-26,20.45-55.94,56-87.55,67.12"/>
  <path class="rich_black"
        d="M1830.26,2620q-31.76-6.15-67.85-14c123.85-39.5,215.91-70.72,361.41-141.92,23.69,4,45.35,7.31,64.82,9.81C1944.9,2596.4,1831,2619.94,1830.26,2620"/>
  <path class="rich_black"
        d="M546.27,1777.1q-49-19.18-92.07-37.09c41.75-63,98.92-149.17,258.43-282.73-181.76-67.36-324.27-127.44-406.57-172.18,16.38-24.64,37.87-57.74,55.61-81.48,116.52,58.65,318.9,138.72,569.32,225.69C754.3,1560,640.65,1654.15,546.27,1777.1"/>
  <path class="rich_black"
        d="M314.1,1677.17c-19.91-9.89-37.27-19.14-51.88-27.69,20.78-85,35.8-146.37,126.21-270.29,25.27,11.49,53,23.59,83.1,36.2-65.24,79.41-116.77,142.14-157.43,261.78"/>
  <path class="rich_black"
        d="M1665.11,1959.83q-91.6-25.71-188.31-54.28c-4.8,52.89-11.63,123.37-17.11,176.19q-29.07-8.5-58.59-17.27-40.33-12-80.09-24c2.7-53.72,6.31-125.34,9-179.06q-17.16-5.25-34.19-10.52c-91.75,56.57-119.43,73.64-192.67,121.59q-69.39-22.29-135.58-44.36c93.91-66.81,136.76-97.31,333.53-220q75.63,23.56,153.68,47l-53,30.6q41.79,12.66,84.16,25.25,73.61,21.87,144.64,42.18c32-20.11,74.83-46.75,106.52-67.32-71.83-20.12-146.17-41.56-222.43-64.21-104.76-31.11-207-62.68-305.26-94.1C1091.6,1705,958,1792.88,846.13,1886.84q-62.39-21.57-120.38-42.49c69.41-63.72,78.33-71.9,153-130.45-54.91-19-107.53-37.61-157.44-55.79,24.59-20.6,57.26-48.24,82.39-68.25,53.42,19,109.44,38.44,167.66,58.13,99.85-73,101.76-74.43,196.31-140.07,119.9,39,246.74,78.56,377.42,117.37,158.67,47.11,309,89,446,124.73-121.17,85.93-159.73,112.42-326,209.81"/>
  <path class="rich_black"
        d="M1913.12,2205.22c-120.45-30-254.76-66.17-398.13-107.44,97.46-52.05,126.87-67.76,216.82-119.4q73.26,20.16,142.38,38.28c-30.83,18.74-71.82,43.92-103,62.19,88.39,23.74,171.77,45.05,248.78,63.64-32,19-69.52,57.78-106.88,62.73"/>
  <path class="rich_black"
        d="M2655.8,1982c-81.21,5.15-291.68-33.09-575.74-103.48l-51.65,37.62c69.49,16.92,148.25,36.1,236,55-27.41,21.55-63.7,50.62-91.76,71.38-113.26-25.86-243.23-58.56-384.9-97.08,92-57.18,164.59-102.35,265.94-179.25,339.21,86.27,585.76,130.86,654.67,116.64-15.3,30-35.36,70.18-52.55,99.17"/>
  <path class="rich_black"
        d="M2222.34,2275q-44.85-8.68-95.85-19.73c111.48-70.14,199.52-125.54,327.24-247.47,28.45,4.84,54.47,8.78,77.85,11.78-83.1,85.51-143.14,147.29-309.24,255.42"/>
  <path class="rich_black"
        d="M658.15,1203.11q-52.86-20.68-99.26-40c78.11-62.83,175.32-141,384-256-168.21-62.34-300.1-117.94-376.26-159.34,26.85-17.76,62.47-41.7,90-58.49C760.25,741.49,940.27,812.72,1163,890.08c-171.62,91.88-339.38,185-504.88,313"/>
  <path class="rich_black"
        d="M407.85,1095.37c-21.47-10.66-40.19-20.64-55.93-29.85,69-78.08,118.85-134.5,271.79-236.63,23.85,10.85,50.06,22.27,78.43,34.17-103.83,67.2-185.85,120.28-294.29,232.31"/>
  <path class="rich_black"
        d="M1842.63,1388.69q-91.5-25.68-188.1-54.22c-3.27,59.14-7.93,138-11.64,197.06q-31.35-9.16-63.17-18.61-43.47-12.92-86.34-25.91c4.25-59,10.07-137.67,14.55-196.66q-17.13-5.25-34.15-10.51c-90,55.35-135.14,83.13-215.24,133.88q-74.82-24-146.16-47.83c135.35-85.62,155.08-97.45,372.81-226.52q71.37,22.25,145,44.38L1580,1213.63q40.15,12.16,80.88,24.27,70.74,21,139,40.53c27.43-20.06,64.19-46.59,91.16-67.21-66.48-18.62-135.27-38.47-205.84-59.42-97-28.8-191.62-58-282.5-87.09-154.81,89.89-288.51,167.52-421.27,256.71q-67.24-23.26-129.78-45.82c101.81-68.71,110.12-74.32,205.72-132.54-54.83-18.94-107.37-37.56-157.21-55.7,31.43-18.7,73.26-43.75,105-62,51.33,18.27,105.17,36.94,161.12,55.86,105.67-62.52,105.67-62.52,207.42-121.2,106.61,34.72,219.4,69.86,335.61,104.37,141.08,41.9,274.78,79.17,396.57,110.92-96.15,89.14-126.87,115.15-263.22,213.36"/>
  <path class="rich_black"
        d="M2131.73,1664.66c-129.86-32.38-274.66-71.34-429.23-115.84,100.28-66.07,124.1-81.78,206.75-141.6q73.17,20.13,142.22,38.23c-26.52,22-61.69,51.46-88.7,72.87,91.64,24.61,178.07,46.7,257.92,66-26.53,24.27-61.75,56.81-89,80.36"/>
  <path class="rich_black"
        d="M2741.93,1392.91c-75.21,4.76-270.12-30.64-533.18-95.83l-36.72,38.7c65.56,16,139.87,34,222.62,51.84-17.77,23.61-41.05,55.41-59.81,78.29-111-25.34-238.27-57.37-377.06-95.1,73.87-59.28,132.21-106.1,203.73-181.15,301.63,76.72,520.87,116.36,582.14,103.71,0,29.87.36,69.76-1.72,99.54"/>
  <path class="rich_black"
        d="M2465.09,1739.85q-48.35-9.36-103.33-21.27c80.74-89.28,144.51-159.79,211.34-296.39,26.85,4.56,51.4,8.28,73.48,11.11-38.89,96.79-67,166.71-181.49,306.55"/>
  <path class="rich_black"
        d="M953.59,704.41q-44.83-17.53-84.2-33.91c95.45-43.61,203.64-93,414.17-166.25-118.68-44-211.74-83.21-265.48-112.43,31.19-8.67,72.73-20.44,104.15-28.33,68.87,34.66,188.48,82,336.48,133.38C1301.83,556,1139.61,617.22,953.59,704.41"/>
  <path class="rich_black"
        d="M741.27,613c-18.21-9-34.09-17.5-47.45-25.31,116.75-59.68,184.66-91.3,345-143.6q26,11.81,56.88,24.79c-126,43-218.66,76.31-354.41,144.12"/>
  <path class="rich_black"
        d="M1936.52,861.27q-71.31-20-146.57-42.25c-.36,49.2-.77,114.79-1,164q-26.6-7.78-53.59-15.79-36.87-11-73.23-22c3.69-48.22,9.12-112.46,13.62-160.6l-26.61-8.19c-93.65,54.86-95.44,55.9-186.22,106.62q-63.48-20.39-124-40.57c142-73.62,227.64-118.06,324.67-173.22q51.77,16.14,105.2,32.19l-36.9,23.18q29.82,9,60.08,18,52.53,15.62,103.24,30.11c17.37-16,40.85-37.14,57.38-54-46.91-13.14-95.44-27.14-145.24-41.92-68.41-20.32-135.2-40.94-199.33-61.45-125.89,64.65-253.56,126-380.19,189.35q-57-19.74-110.09-38.87c110-52,110-52,207.07-96-42.71-14.75-83.63-29.25-122.45-43.39,30.74-12.55,71.7-29.33,102.53-41.69,38.13,13.57,78.12,27.44,119.68,41.49,79.28-37.29,112.1-52.72,174.22-83,70.79,23,145.69,46.39,222.85,69.3,93.68,27.82,182.47,52.58,263.34,73.66-44.42,73-60.76,94.37-148.44,174.95"/>
  <path class="rich_black"
        d="M2203.59,1095.94c-110.15-27.47-233-60.52-364.1-98.26,78.28-59,92.38-69.69,148.94-122q57,15.69,110.82,29.8c-16.31,19.19-37.71,45.07-54.91,63.52,74.52,20,144.81,38,209.74,53.66-14.86,22.16-34.41,51.92-50.49,73.26"/>
  <path class="rich_black"
        d="M2553.74,847.21c-53.12,3.37-190.79-21.63-376.58-67.68l-15.11,32.35c45.15,11,101.35,24.65,161.33,37.56-4.88,20.41-10.73,47.83-17.2,67.8-84.44-19.28-181.33-43.66-286.95-72.37,40.78-47,76-87.62,102.7-149,200.29,50.94,345.87,77.26,386.56,68.86,14,24.56,32.91,57.18,45.25,82.51"/>
  <path class="rich_black"
        d="M2486.37,1159.71c-27.34-5.29-56.62-11.32-87.65-18,34.38-81.87,61.54-146.54,53.83-267.28,19.48,3.31,37.28,6,53.29,8.06,12.15,82.53,21.75,147.71-19.47,277.26"/>
  <path class="rich_black"
        d="M1357.78,384.11q-27.4-10.73-51.47-20.74c79.9-15.7,213.65-42,364.91-53.83-43.44-16.1-77.5-30.46-97.17-41.15,30.07,2.17,70.19,4.82,100.2,7.87,18.73,9.43,51.27,22.3,91.53,36.28-47.25,5.25-191,21.23-382.5,65.65-7.65,1.78-17.61,6.5-25.5,5.92"/>
  <path class="rich_black"
        d="M1228,328.23c-11.13-5.52-20.84-10.7-29-15.47,118.25-18.25,201-29.48,352.93-31.56q10.56,4.8,23.14,10.07c-78.37,3.74-185.69,8.86-314.28,31.26-9.83,1.71-22.85,7.15-32.78,5.7"/>
  <path class="rich_black"
        d="M1935.41,471.05q-36.09-10.12-74.19-21.38c2.09,31.44,5,73.34,7.29,104.77q-16.26-4.74-32.76-9.65-22.55-6.7-44.78-13.44c3.13-29.8,8-69.46,12.43-99.09l-13.47-4.14c-54.17,31.5-59.83,34.79-120.76,65.22q-38.81-12.46-75.8-24.8c93.49-38.3,153.78-63.41,212.61-95.77q21.06,6.57,42.79,13.09l-16,12.71q13.15,4,26.49,7.95,23.16,6.89,45.52,13.27c3.72-9.39,9.49-21.79,11.29-31.72-17.17-4.82-34.93-9.94-53.16-15.35-25-7.44-49.49-15-73-22.49-72.06,28.59-97.57,37.61-264.52,95.24q-34.87-12.06-67.31-23.76c92-26.56,93.81-27.07,167.84-47.5-21.59-7.46-42.29-14.79-61.92-21.94,24.13-4.65,56.29-10.93,80.46-15.35,16.81,6,34.45,12.1,52.77,18.29,86.07-24.16,86.07-24.16,106.77-30,19.19,6.24,39.5,12.57,60.42,18.78,25.4,7.55,49.47,14.26,71.39,20,20.25,39.86,24.52,52.53-.45,107.12"/>
  <path class="rich_black"
        d="M2122,623.49c-67.35-16.8-142.45-37-222.62-60.08,42.38-46.51,44.91-49.3,62.27-85q28.86,8,56.09,15.08c-2.78,13.47-5.88,31.64-10.38,44.64,41.79,11.22,81.21,21.3,117.63,30.09-.43,16.62-.5,38.9-3,55.32"/>
  <path class="rich_black"
        d="M2137.29,435.46c-19.52,1.24-70.12-7.95-138.4-24.87L2009.23,431c18.35,4.45,41.18,10,65.45,15.17,9.25,13.64,22.33,31.49,30,46-40.07-9.15-86.05-20.72-136.17-34.34,3.62-37.52,5.43-56.35-22.6-91.36,54.3,13.81,93.77,20.95,104.8,18.67,26.17,14.78,61.26,34.22,86.61,50.28"/>
  <path class="rich_black"
        d="M2294.93,662.48c-16.72-3.23-34.62-6.92-53.59-11-16.31-63.31-29.19-113.31-114.48-195.26,7.92,1.34,15.17,2.44,21.68,3.28,61.68,56.64,110.41,101.38,146.39,203"/>
</svg>
