<?xml version="1.0" standalone="no"?>
<!DOCTYPE svg PUBLIC "-//W3C//DTD SVG 20010904//EN"
  "http://www.w3.org/TR/2001/REC-SVG-20010904/DTD/svg10.dtd">
<svg version="1.0" xmlns="http://www.w3.org/2000/svg"
     width="700.000000pt" height="700.000000pt" viewBox="0 0 700.000000 700.000000"
     preserveAspectRatio="xMidYMid meet">
  <g transform="translate(0.000000,700.000000) scale(0.100000,-0.100000)"
     fill="#000000" stroke="none">
    <path d="M3691 6366 c3 -3 47 -23 98 -45 51 -21 89 -41 85 -44 -5 -2 -52 -8
-104 -12 -52 -3 -97 -8 -100 -10 -3 -1 -34 -6 -70 -9 -66 -7 -433 -68 -505
-84 l-40 -9 49 -22 c66 -29 67 -29 171 -4 50 12 101 24 115 27 100 19 138 27
160 31 14 3 39 8 55 10 43 8 136 24 160 29 11 2 47 7 80 11 32 4 68 9 80 11
11 2 56 8 99 14 44 5 81 11 83 13 3 4 -179 75 -212 82 -33 8 -210 18 -204 11z"/>
    <path d="M3568 6345 c-2 -2 -73 -6 -158 -9 -85 -4 -168 -8 -185 -10 -16 -2
-64 -7 -105 -11 -41 -4 -84 -9 -95 -11 -11 -2 -40 -7 -65 -10 -66 -8 -101 -14
-134 -20 l-29 -6 34 -16 c43 -19 47 -20 84 -11 17 5 48 10 70 14 23 3 50 7 62
9 18 4 160 21 253 31 55 6 200 17 271 20 111 6 107 5 79 16 -24 10 -77 19 -82
14z"/>
    <path d="M4077 6205 l-117 -35 -56 21 c-55 21 -72 21 -169 4 -16 -3 -38 -6
-47 -8 -35 -6 -26 -14 39 -37 72 -25 72 -26 -12 -44 -32 -7 -258 -73 -285 -84
-24 -9 -23 -9 15 -21 22 -7 49 -16 60 -21 11 -4 28 -11 38 -14 17 -5 265 77
514 170 l122 46 103 -32 c57 -18 118 -36 137 -40 47 -12 54 -22 39 -56 -6 -16
-13 -30 -14 -32 -1 -1 -21 4 -45 12 -24 9 -49 16 -56 16 -6 0 -24 5 -39 10
-26 10 -26 11 -8 25 21 15 24 13 -47 35 -35 10 -43 8 -135 -39 -55 -27 -144
-68 -199 -91 -165 -70 -185 -79 -185 -84 0 -2 38 -16 84 -30 l84 -26 68 36
c38 20 102 54 142 76 73 40 108 44 98 11 -5 -17 -8 -42 -22 -165 l-5 -46 84
-26 c47 -14 88 -26 91 -26 6 0 0 120 -9 191 -3 20 -2 38 1 41 3 3 43 -5 89
-17 l83 -23 18 46 c23 61 22 118 -3 166 -20 38 -20 38 -173 82 -84 24 -155 44
-159 43 -3 0 -59 -16 -124 -34z"/>
    <path d="M2490 6119 c-57 -17 -106 -31 -107 -33 -8 -8 301 -143 521 -229 77
-30 86 -35 65 -42 -145 -44 -782 -300 -906 -363 l-34 -18 99 -38 99 -37 144
64 c79 36 189 84 244 107 55 23 114 48 130 55 55 24 440 174 567 221 43 16 78
32 78 36 0 3 -17 12 -37 18 -63 20 -465 171 -513 193 -25 11 -67 30 -95 42
-84 38 -127 55 -139 54 -6 0 -58 -14 -116 -30z"/>
    <path d="M4550 6138 c0 -2 11 -24 24 -50 18 -37 23 -60 21 -103 -1 -30 -1 -55
0 -55 4 0 278 -70 298 -76 17 -5 17 -4 3 23 -35 66 -58 83 -131 99 -62 14 -95
33 -95 55 0 9 21 5 118 -17 102 -24 198 -36 185 -23 -23 22 -188 109 -206 109
-12 0 -64 9 -116 20 -99 21 -101 21 -101 18z"/>
    <path d="M2285 5919 c-173 -61 -378 -147 -529 -222 l-139 -68 55 -29 55 -29
159 73 c198 91 340 148 584 232 41 15 76 28 78 29 7 6 -112 55 -132 54 -11 -1
-70 -18 -131 -40z"/>
    <path d="M5022 5873 c94 -100 150 -196 187 -319 23 -77 24 -79 96 -89 46 -7
47 -7 40 16 -16 51 -85 177 -128 234 -68 90 -200 215 -227 215 -20 0 -17 -7
32 -57z"/>
    <path d="M4552 5838 c-12 -24 -43 -65 -67 -93 -25 -27 -45 -53 -45 -56 0 -5
406 -119 476 -134 37 -7 41 -1 40 70 l-1 49 -43 12 c-23 7 -55 15 -70 17 -15
3 -56 13 -90 23 l-64 18 6 37 c3 21 9 44 12 53 4 11 -5 18 -33 25 -96 26 -96
26 -121 -21z"/>
    <path d="M3690 5715 c-14 -8 -102 -50 -196 -95 l-170 -80 -137 47 -136 48 -53
-19 c-29 -10 -71 -26 -93 -36 -22 -9 -53 -23 -70 -30 l-30 -13 25 -7 c62 -19
236 -83 243 -89 4 -4 -49 -33 -117 -65 -163 -74 -352 -165 -346 -166 3 0 61
-20 130 -44 l125 -44 443 221 443 220 282 -86 c155 -47 334 -100 397 -118 63
-17 117 -33 120 -36 5 -5 -122 -123 -133 -123 -11 0 -350 101 -360 107 -5 3 9
17 30 31 l38 26 -60 19 c-33 10 -88 27 -122 36 l-61 18 -59 -32 c-247 -135
-458 -247 -636 -338 -32 -16 -56 -31 -54 -33 2 -2 66 -24 142 -49 l139 -45 65
37 c36 20 80 44 96 53 17 10 85 49 152 88 114 66 125 70 153 60 l31 -10 -6
-62 c-8 -78 -12 -131 -20 -231 l-7 -81 141 -42 c77 -23 144 -42 148 -42 4 0 8
75 8 168 -1 92 2 176 5 188 5 20 8 20 170 -27 l164 -47 27 19 c87 62 335 367
314 387 -3 3 -83 27 -178 53 -314 85 -505 142 -825 243 -128 41 -128 41 -162
21z"/>
    <path d="M1427 5325 c-53 -36 -97 -68 -97 -71 0 -19 504 -235 813 -348 26 -10
45 -21 42 -26 -3 -5 -36 -25 -73 -46 -229 -128 -414 -249 -621 -404 -189 -142
-188 -141 -176 -147 6 -2 57 -23 115 -47 l105 -42 125 91 c166 121 431 295
450 295 6 0 10 5 10 10 0 6 4 10 10 10 5 0 34 16 64 35 30 19 57 35 60 35 2 0
39 20 80 45 42 25 78 45 80 45 2 0 47 25 101 55 53 30 99 55 102 55 3 0 25 12
49 27 l43 27 -242 89 c-133 49 -253 92 -267 97 -34 11 -374 147 -430 172 -25
11 -87 40 -139 64 -51 24 -96 44 -100 44 -3 0 -50 -29 -104 -65z"/>
    <path d="M4926 5327 c-25 -55 -80 -136 -150 -221 -32 -39 -53 -73 -48 -78 7
-7 438 -118 629 -163 20 -5 24 1 37 47 33 117 41 103 -71 129 -54 12 -103 24
-110 25 -68 12 -163 39 -163 46 0 13 29 68 36 68 3 0 58 -13 122 -29 119 -30
385 -86 457 -96 22 -3 65 -10 95 -15 115 -19 190 -23 190 -8 0 7 -22 51 -48
97 l-48 83 -79 3 c-89 3 -169 15 -345 52 -41 8 -84 17 -95 19 -28 5 -218 50
-290 68 -90 23 -97 21 -119 -27z"/>
    <path d="M1329 4978 c-158 -112 -267 -207 -398 -344 l-112 -118 58 -33 c32
-18 63 -33 68 -33 6 0 51 39 100 86 130 124 279 242 446 353 143 95 146 98
120 109 -14 6 -52 23 -84 37 -32 14 -64 25 -71 25 -7 0 -64 -37 -127 -82z"/>
    <path d="M4602 4925 c-20 -19 -53 -48 -72 -65 -19 -18 -77 -64 -128 -102 -51
-39 -95 -74 -97 -78 -3 -5 25 -17 63 -29 71 -21 423 -119 457 -127 11 -2 87
-21 168 -43 l149 -38 53 76 c30 42 55 81 55 87 0 7 -82 32 -188 58 -241 60
-277 71 -277 84 0 5 18 30 39 54 22 23 48 53 58 64 l19 21 -58 16 c-32 8 -91
24 -131 35 l-72 20 -38 -33z"/>
    <path d="M5725 4882 c2 -151 -28 -298 -97 -471 -16 -40 -27 -74 -26 -76 2 -1
47 -11 101 -21 l97 -20 17 55 c9 31 18 61 20 66 17 62 31 180 31 265 0 95 -13
249 -22 258 -2 2 -19 5 -38 8 -18 2 -45 6 -59 9 l-26 4 2 -77z"/>
    <path d="M3020 4654 c-96 -58 -203 -121 -238 -140 l-63 -36 -137 47 c-75 25
-146 50 -157 54 -83 34 -69 38 -243 -67 l-81 -48 122 -44 c67 -24 149 -53 182
-65 l60 -22 -64 -39 c-211 -130 -411 -268 -399 -274 7 -4 75 -29 150 -55 l137
-47 188 120 c103 65 251 156 328 202 77 46 156 93 175 105 110 69 285 165 301
165 10 0 42 -8 71 -19 29 -10 78 -26 108 -35 422 -129 635 -192 839 -250 l114
-32 -107 -78 -107 -78 -212 62 c-117 34 -229 67 -249 72 -21 6 -38 13 -38 17
0 4 23 20 50 36 32 19 45 32 38 36 -7 4 -83 28 -168 54 l-155 47 -250 -149
c-296 -177 -561 -339 -593 -364 -23 -17 -21 -18 149 -73 148 -48 174 -54 188
-43 9 8 84 56 166 107 83 51 185 114 228 141 84 53 89 54 135 38 30 -10 31
-12 27 -62 -9 -107 -14 -175 -20 -267 -4 -52 -8 -105 -10 -117 -2 -13 3 -23
13 -26 10 -3 86 -26 170 -51 84 -26 157 -44 161 -41 5 2 9 22 9 42 0 33 7 159
17 313 1 25 3 57 4 71 l1 26 83 -25 c45 -13 145 -41 221 -62 l139 -39 111 82
c98 72 229 173 262 202 55 49 148 131 189 168 l49 45 -44 12 c-120 31 -641
176 -760 212 -74 22 -155 46 -180 53 -64 18 -344 104 -550 170 -96 30 -177 54
-180 54 -3 0 -84 -48 -180 -105z"/>
    <path d="M4982 4163 c-31 -32 -98 -94 -147 -138 -50 -43 -95 -84 -101 -90 -6
-5 -45 -37 -87 -70 -42 -32 -75 -61 -73 -62 7 -8 591 -158 766 -197 41 -10 82
-19 91 -22 12 -3 37 22 83 82 36 48 66 89 66 93 0 3 -107 30 -238 60 -130 30
-244 57 -253 60 -14 5 -10 14 22 50 l40 44 117 -28 c291 -69 619 -137 767
-160 61 -9 121 -18 135 -21 14 -2 71 -7 127 -10 l102 -7 3 94 c5 146 9 138
-76 138 -39 0 -92 2 -116 6 -25 3 -58 7 -75 9 -91 12 -198 29 -257 42 -37 7
-82 16 -100 19 -18 4 -71 15 -118 25 -47 10 -96 21 -110 24 -14 3 -36 8 -50
11 -14 3 -36 8 -50 11 -14 3 -107 25 -206 50 -100 24 -187 44 -193 44 -6 0
-37 -26 -69 -57z"/>
    <path d="M808 4143 c-74 -105 -90 -132 -84 -141 6 -10 142 -78 251 -127 33
-14 74 -33 90 -40 46 -21 433 -175 490 -195 28 -10 62 -23 78 -29 l27 -11 -82
-72 c-189 -167 -350 -344 -469 -516 -50 -71 -50 -72 -27 -81 13 -5 61 -24 108
-43 l86 -35 32 42 c82 107 260 288 398 405 66 56 286 230 371 294 51 38 91 71
90 72 -2 2 -55 21 -118 43 -256 88 -772 286 -903 346 -30 14 -57 25 -60 25 -3
0 -57 25 -121 55 -63 30 -117 55 -119 55 -2 0 -19 -21 -38 -47z"/>
    <path d="M833 3673 c-109 -166 -168 -299 -208 -465 l-13 -58 56 -30 c30 -16
58 -30 61 -30 3 0 21 40 40 88 47 123 130 262 232 394 48 62 87 118 86 123 -1
6 -31 22 -67 37 -36 15 -73 32 -82 38 -10 5 -21 10 -26 10 -5 0 -40 -48 -79
-107z"/>
    <path d="M4333 3631 c-67 -47 -173 -120 -237 -161 -63 -41 -115 -77 -116 -80
0 -3 62 -23 138 -44 75 -21 189 -53 252 -71 137 -39 531 -142 577 -151 21 -4
37 -2 46 7 8 8 53 50 101 93 l87 80 -248 63 c-136 35 -252 65 -258 67 -5 1
-27 6 -47 11 -21 4 -38 11 -38 15 0 4 17 20 38 36 20 15 39 30 42 34 3 3 29
25 58 49 38 32 50 46 40 52 -7 4 -81 25 -163 46 l-151 40 -121 -86z"/>
    <path d="M5970 3619 c-97 -189 -250 -405 -392 -553 -50 -53 -63 -75 -46 -81 7
-2 60 -13 118 -24 88 -17 106 -18 113 -6 4 8 13 20 20 27 48 49 198 265 255
368 32 56 132 284 132 299 0 5 -19 11 -42 14 -24 3 -61 9 -84 13 l-41 6 -33
-63z"/>
    <path d="M2573 3377 c-78 -56 -179 -129 -224 -162 l-82 -59 -186 63 c-102 35
-190 66 -196 68 -10 3 -195 -143 -195 -155 0 -4 24 -14 53 -23 104 -33 297
-104 297 -110 0 -3 -28 -28 -62 -55 -35 -27 -97 -79 -138 -116 -42 -36 -90
-79 -108 -94 -18 -16 -32 -31 -32 -35 0 -3 63 -27 140 -54 129 -43 141 -46
156 -31 60 61 395 303 662 480 127 84 167 106 185 101 12 -4 92 -29 177 -55
314 -99 905 -274 993 -294 15 -3 27 -10 27 -14 0 -9 -225 -152 -240 -152 -15
0 -492 141 -509 150 -11 6 1 17 43 40 31 18 56 34 54 35 -6 6 -335 105 -348
105 -23 0 -500 -307 -703 -452 l-78 -56 159 -53 158 -52 65 43 c75 50 335 212
365 228 21 11 108 -3 100 -17 -4 -5 -18 -267 -20 -375 l-1 -38 145 -44 c80
-24 153 -43 163 -44 13 0 17 9 18 38 1 20 3 46 4 57 1 11 5 43 8 70 3 28 9 88
13 135 3 47 9 89 13 93 4 4 104 -20 223 -54 l214 -62 190 113 c104 62 191 117
192 122 2 4 8 8 13 8 5 0 44 24 87 53 42 29 115 79 162 112 47 32 91 64 99 70
16 15 27 11 -144 56 -66 17 -208 56 -315 86 -107 30 -224 63 -260 73 -174 47
-744 220 -1050 320 -69 22 -129 40 -135 39 -5 0 -74 -46 -152 -102z"/>
    <path d="M4695 2807 c-101 -74 -338 -232 -453 -302 -34 -21 -59 -42 -55 -45 4
-4 37 -15 73 -24 182 -47 578 -148 595 -152 11 -2 31 -6 45 -9 14 -3 57 -13
96 -23 l72 -18 53 41 c126 95 160 125 147 129 -7 2 -76 19 -153 36 -77 18
-186 43 -243 56 -143 33 -143 33 -77 79 58 39 62 41 105 31 14 -3 34 -8 45
-10 11 -3 88 -21 170 -41 167 -40 411 -93 465 -101 19 -3 42 -7 50 -9 22 -7
188 -35 235 -41 22 -3 50 -7 61 -9 28 -6 123 -15 202 -19 73 -4 70 -7 144 139
l46 90 -72 -2 c-65 -1 -109 2 -266 22 -25 3 -83 13 -130 21 -47 9 -98 18 -115
21 -27 4 -387 79 -425 88 -43 10 -117 27 -130 30 -8 2 -64 15 -125 30 -60 14
-117 28 -125 30 -17 3 -97 24 -120 31 -9 2 -60 -29 -115 -69z"/>
    <path d="M746 2812 c-3 -15 -7 -54 -8 -87 l-3 -60 50 -27 c82 -45 315 -145
534 -230 113 -44 209 -82 214 -85 5 -3 0 -15 -10 -27 -47 -53 -117 -188 -144
-280 -14 -47 -22 -101 -23 -159 l-1 -89 70 -28 c39 -15 71 -27 72 -26 2 2 12
38 23 82 40 159 127 296 304 479 53 54 96 100 96 101 0 2 -57 23 -190 69 -266
94 -698 264 -840 332 -143 68 -138 67 -144 35z"/>
    <path d="M939 2443 c-10 -190 4 -296 61 -441 28 -73 36 -85 70 -102 22 -11 41
-20 44 -20 3 0 -1 18 -9 40 -39 110 -46 247 -20 389 10 51 16 93 14 95 -8 5
-149 66 -154 66 -3 0 -6 -12 -6 -27z"/>
    <path d="M3885 2297 c-83 -46 -194 -107 -248 -136 -54 -29 -97 -54 -95 -56 4
-4 409 -117 573 -160 77 -20 183 -48 235 -62 110 -30 130 -30 185 -2 61 32
166 112 158 120 -5 4 -91 28 -193 54 -102 26 -192 48 -200 50 -8 3 -44 12 -80
21 -36 9 -68 20 -72 23 -4 4 45 38 109 76 l116 69 -154 43 c-85 24 -161 43
-169 43 -9 0 -83 -37 -165 -83z"/>
    <path d="M5707 2301 c-7 -9 -50 -50 -97 -91 -47 -41 -87 -77 -90 -80 -6 -7
-134 -106 -171 -133 -109 -79 -172 -122 -268 -182 -61 -39 -111 -72 -111 -75
0 -3 48 -15 108 -26 l107 -21 90 60 c50 33 104 70 120 81 45 31 224 175 269
215 74 67 238 233 234 236 -2 2 -43 10 -91 18 -79 12 -89 12 -100 -2z"/>
    <path d="M2341 2159 c-77 -59 -152 -121 -205 -170 l-40 -37 -155 54 c-85 30
-157 54 -161 54 -10 0 -103 -120 -98 -125 2 -3 62 -25 132 -50 71 -25 132 -48
137 -51 5 -2 -16 -35 -46 -72 -59 -73 -109 -158 -97 -166 4 -2 48 -18 97 -36
l90 -31 24 28 c65 78 128 138 231 224 76 64 266 199 279 199 6 0 89 -24 183
-54 95 -30 189 -59 208 -64 19 -6 105 -31 190 -57 85 -26 209 -62 275 -81 166
-47 170 -48 168 -58 -1 -4 -48 -30 -103 -56 l-102 -49 -46 15 c-26 8 -72 22
-102 30 -30 8 -107 31 -170 51 l-115 36 48 22 c27 13 45 25 40 28 -6 4 -146
48 -198 63 -98 28 -83 32 -198 -41 -118 -74 -278 -188 -329 -234 -18 -16 -43
-38 -56 -49 -27 -24 -33 -20 94 -62 l102 -34 83 56 c181 121 220 141 253 131
l31 -9 -2 -145 -2 -145 111 -33 c117 -34 126 -33 129 14 0 11 2 29 4 40 2 11
9 57 16 103 7 45 15 82 18 82 4 0 82 -22 174 -49 l167 -49 228 103 c319 144
472 217 472 226 0 5 -12 11 -27 15 -16 3 -50 12 -78 19 -27 8 -102 28 -165 45
-63 18 -137 38 -165 46 -83 23 -363 104 -470 136 -55 16 -143 42 -195 58 -52
15 -183 56 -290 90 -276 87 -284 90 -295 89 -5 0 -39 -22 -74 -50z"/>
    <path d="M4149 1634 c-133 -65 -236 -113 -376 -174 -68 -30 -123 -57 -123 -60
0 -4 28 -14 63 -22 34 -9 150 -39 257 -67 107 -27 237 -60 289 -71 l95 -21
108 47 c59 26 108 50 108 53 0 4 -93 29 -207 55 -115 27 -212 51 -217 54 -12
7 103 61 118 57 12 -4 128 -33 164 -40 12 -3 30 -7 40 -9 403 -95 741 -154
877 -152 65 1 74 4 118 38 48 37 127 106 127 111 0 1 -30 2 -67 2 -116 -2
-309 28 -663 101 -87 18 -313 70 -433 99 -78 19 -151 37 -163 40 -13 3 -58
-13 -115 -41z"/>
    <path d="M1294 1603 c41 -60 52 -69 126 -105 45 -21 138 -61 208 -89 158 -63
219 -88 210 -89 -13 0 25 -117 53 -161 43 -68 158 -170 224 -198 24 -10 19 -3
-25 37 -69 62 -106 129 -109 199 -2 51 14 127 32 151 6 8 6 16 1 21 -5 4 -81
34 -169 65 -88 32 -179 66 -202 77 -24 10 -46 19 -51 19 -9 0 -218 88 -281
119 -25 11 -49 21 -53 21 -5 0 12 -30 36 -67z"/>
    <path d="M1539 1381 c36 -50 154 -163 226 -216 84 -61 116 -80 60 -34 -63 52
-137 130 -175 186 -19 29 -42 54 -50 57 -8 3 -30 12 -48 20 l-33 15 20 -28z"/>
    <path d="M3311 1266 c-112 -46 -199 -86 -194 -89 5 -3 20 -8 34 -11 13 -3 80
-21 149 -41 308 -89 463 -125 503 -116 45 11 177 64 177 71 0 3 -87 27 -192
54 -106 27 -199 52 -206 56 -7 3 30 23 89 47 94 38 106 49 62 58 -10 1 -61 15
-113 29 -52 14 -97 26 -100 26 -3 -1 -97 -38 -209 -84z"/>
    <path d="M2304 1223 c-19 -21 -47 -57 -60 -80 l-25 -41 -86 29 c-48 16 -88 27
-90 25 -3 -2 -1 -20 2 -40 5 -24 14 -37 29 -42 82 -25 126 -47 126 -62 0 -18
33 -76 56 -99 8 -8 28 -18 45 -23 27 -8 30 -7 24 8 -14 35 -13 50 5 89 22 49
103 135 122 128 28 -9 409 -124 516 -155 l113 -33 -73 -23 c-69 -22 -93 -23
-148 -4 -14 5 -59 19 -100 31 -74 22 -75 22 -46 34 31 13 29 14 -135 61 -19 5
-100 -47 -134 -88 -31 -37 -42 -77 -25 -88 8 -5 28 -11 46 -14 26 -5 37 -1 63
23 36 33 69 47 81 34 5 -4 11 -30 14 -57 6 -56 2 -50 45 -65 47 -15 46 -16 66
32 11 23 20 43 21 45 1 2 40 -8 87 -22 52 -15 99 -22 119 -19 45 7 447 109
478 122 14 5 18 10 10 11 -47 4 -706 195 -985 284 -60 20 -113 36 -118 36 -4
0 -23 -17 -43 -37z"/>
    <path d="M4855 1204 c-116 -58 -424 -180 -592 -235 -73 -24 -133 -46 -133 -49
0 -3 33 -12 74 -19 64 -12 80 -11 132 3 137 39 398 145 646 263 l121 58 -59
12 c-84 17 -89 16 -189 -33z"/>
    <path d="M3420 879 c-63 -16 -124 -31 -135 -33 -24 -5 -150 -34 -185 -42 -28
-7 89 -41 315 -91 39 -9 67 -9 142 0 104 12 103 19 -8 43 -143 32 -157 40 -95
49 39 6 76 2 165 -19 276 -62 390 -83 504 -92 66 -6 95 -2 187 22 61 15 109
28 107 29 -1 2 -40 5 -86 9 -46 3 -86 8 -90 10 -3 2 -33 7 -66 11 -32 3 -62 8
-65 10 -3 2 -21 6 -40 9 -19 3 -44 8 -55 10 -11 3 -51 11 -90 20 -38 8 -135
31 -215 50 -80 20 -152 36 -160 35 -8 0 -67 -14 -130 -30z"/>
    <path d="M2895 769 c-47 -8 -108 -17 -129 -18 -21 -2 5 -11 114 -39 107 -28
170 -37 245 -32 21 1 4 9 -55 24 -75 20 -81 23 -55 29 17 4 44 8 62 9 42 3 34
13 -21 27 -51 12 -88 13 -161 0z"/>
    <path d="M3857 684 c-1 -2 -34 -6 -72 -9 -39 -4 -78 -9 -88 -11 -49 -9 -211
-17 -367 -17 -96 0 -161 -4 -145 -8 32 -8 483 -4 525 4 14 3 57 8 95 12 101
10 166 22 135 25 -46 6 -80 7 -83 4z"/>
  </g>
</svg>
