<svg xmlns="http://www.w3.org/2000/svg" viewBox="0 0 2740.26 398.26">
  <defs>
    <style>
      .dark {
        fill: #070707;
      }
    </style>
  </defs>

  <path d="M114.87.71L49.56 81.64h584.79L371.86 398.26h126.91L825.9.71H114.87z" class="dark"/>
  <path d="M229.81 122.34L0 398.26h128.06l228.13-275.92H229.81zM1722.84 0h-684.42L911.4 159.73H750.96l-66.73 79.51h159.02L711.29 398.26h126.98l260.55-316.62h429.76l-63.44 78.09h-185.29l31.88-37.39h-124.81L958.26 398.26h126.97l129.67-158.31h28.52l35.3 158.31h119.21l-34.23-158.31h157.45L1722.84 0zM1579.11 239.95h128.83l-62.48 77.38h245.23l-66.18 80.93h-378.34l132.94-158.31zM2050.87 122.99l-61.72 76.5h-375.9L1780.93 0h959.33L2672 83.06h-834.15l-33.32 40.64 246.34-.71z" class="dark"/>
  <path d="M2295.82 122.34l-228.65 275.92h127.51l228.91-275.92h-127.77z" class="dark"/>
</svg>
